) (`-.                           (` .-') /`           ) (`-.
       ( OO ).                          `.( OO ),'            ( OO ).
      (_/.  _)-.-'),-----. ,--.     ,--./  .--.  .-'),-----.(_/.  _)-.
         `.'  ( OO'  .-.  '|  |.-') |      |  | ( OO'  .-.  '  `.'  /
             /Y   |  | |  ||  | OO )|  |   |  |,/   |  | |  |      /
             _) |  ||  ||  |`-' ||  |.'.|  |_)_) |  ||  |      |
        .'    _) |  | |  (|  '---.'|         |    |  | |  | .'    _)
       /  .'.    `'  '-'  '|      | |   ,'.   |    `'  '-'  '/  .'.  
      '--'   '--'   `-----' `------' '--'   '--'      `-----''--'   '--'


      ßßßßßßßßßßßßßßßßßßßßßßßßßßßßßßßßßßßßßßßßßßßßßßßßßßßßßßßßßßßßßßßßßßßßßß

                     Û°°°°°°°°°°°°°°°°°°°°°°°°°°°°°Û
                    ÛÛ The Proposal[2009]DvDrip-LW ÛÛ
                     Û°°°°°°°°°°°°°°°°°°°°°°°°°°°°°Û

File Name    : The Proposal[2009]DvDrip-LW
Type         : Movie
Format       : Mp4
File Size    : 1.19 GB
Duration     : 01:47:13
Language     : English
Source       : DvD
Subtitles    : None
Genre        : Comedy | Drama | Romance
IMDB Link    : http://www.imdb.com/title/tt1041829/
IMDB Rating  : 7.1/10
IMDB Votes   : 13,837 Votes
     ÜÜÜÜÜÜÜÜÜÜÜÜÜÜÜÜÜÜÜÜÜÜÜÜÜÜÜÜÜÜÜÜÜÜÜÜÜÜÜÜÜÜÜÜÜÜÜÜÜÜÜÜÜÜÜÜÜÜÜÜÜÜÜÜÜÜÜÜÜÜ
 
                        Û°°°°°°°°°°°°°°°°°°°°°°°°Û
                       ÛÛ       Video Info       ÛÛ
                        Û°°°°°°°°°°°°°°°°°°°°°°°°Û

Format                           : MPEG-4 Visual
Format profile                   : Simple@L3
Format settings, BVOP            : No
Format settings, QPel            : No
Format settings, GMC             : No warppoints
Format settings, Matrix          : Default (H.263)
Codec ID                         : 20
Duration                         : 1h 47mn
Bit rate mode                    : Constant
Bit rate                         : 1 500 Kbps
Width                            : 672 pixels
Height                           : 288 pixels
Display aspect ratio             : 2.35
Frame rate mode                  : Constant
Frame rate                       : 23.976 fps
Resolution                       : 24 bits
Colorimetry                      : 4:2:0
Scan type                        : Progressive
Bits/(Pixel*Frame)               : 0.323
Stream size                      : 1.12 GiB (94%)
     ÜÜÜÜÜÜÜÜÜÜÜÜÜÜÜÜÜÜÜÜÜÜÜÜÜÜÜÜÜÜÜÜÜÜÜÜÜÜÜÜÜÜÜÜÜÜÜÜÜÜÜÜÜÜÜÜÜÜÜÜÜÜÜÜÜÜÜÜÜÜ

                         Û°°°°°°°°°°°°°°°°°°°°°°°°Û
                        ÛÛ      Sound Info        ÛÛ
                         Û°°°°°°°°°°°°°°°°°°°°°°°°Û

Format                           : AAC
Format/Info                      : Advanced Audio Codec
Format version                   : Version 4
Format profile                   : LC
Format settings, SBR             : No
Codec ID                         : 40
Duration                         : 1h 47mn
Bit rate mode                    : Constant
Bit rate                         : 96.0 Kbps
Nominal bit rate                 : 48.0 Kbps
Channel(s)                       : 2 channels
Channel positions                : L R
Sampling rate                    : 32.0 KHz
Resolution                       : 16 bits
Stream size                      : 73.7 MiB (6%)
    ÜÜÜÜÜÜÜÜÜÜÜÜÜÜÜÜÜÜÜÜÜÜÜÜÜÜÜÜÜÜÜÜÜÜÜÜÜÜÜÜÜÜÜÜÜÜÜÜÜÜÜÜÜÜÜÜÜÜÜÜÜÜÜÜÜÜÜÜÜÜ

                          Û°°°°°°°°°°°°°°°°°°°°°°°°Û
                         ÛÛ          Plot          ÛÛ
                          Û°°°°°°°°°°°°°°°°°°°°°°°°Û

When she learns that she's in danger of losing her 
visa status and being deported back to her native 
Canada, overbearing book editor Margaret Tate (Sandra 
Bullock) forces her put-upon assistant, Andrew Paxton 
(Ryan Reynolds), to marry her. Directed by Anne 
Fletcher (27 Dresses), this romantic comedy also 
stars Craig T. Nelson and Mary Steenburgen as Andrew's 
parents, Joe and Grace, and Betty White as the outspoken 
Grandma Annie.

Starring: Sandra Bullock, Ryan Reynolds

Director: Anne Fletcher
    ÜÜÜÜÜÜÜÜÜÜÜÜÜÜÜÜÜÜÜÜÜÜÜÜÜÜÜÜÜÜÜÜÜÜÜÜÜÜÜÜÜÜÜÜÜÜÜÜÜÜÜÜÜÜÜÜÜÜÜÜÜÜÜÜÜÜÜÜÜÜ 
http://torrentz.me.pn